<?xml version="1.0" encoding="UTF-8" standalone="no"?><!DOCTYPE svg PUBLIC "-//W3C//DTD SVG 1.1//EN" "http://www.w3.org/Graphics/SVG/1.1/DTD/svg11.dtd"><svg width="100%" height="100%" viewBox="0 0 1974 1974" version="1.1" xmlns="http://www.w3.org/2000/svg" xmlns:xlink="http://www.w3.org/1999/xlink" xml:space="preserve" xmlns:serif="http://www.serif.com/" style="fill-rule:evenodd;clip-rule:evenodd;stroke-linejoin:round;stroke-miterlimit:2;"><g><path d="M959.016,0.401c544.792,-15.385 998.938,413.798 1014.312,958.6c15.396,544.812 -413.792,998.938 -958.604,1014.333c-544.808,15.375 -998.935,-413.792 -1014.323,-958.604c-15.385,-544.812 413.796,-998.942 958.615,-1014.329Zm-22.438,121.585c-477.588,27.931 -842.106,437.735 -814.177,915.327c27.929,477.583 437.731,842.104 915.323,814.167c477.583,-27.917 842.104,-437.729 814.188,-915.315c-27.937,-477.59 -437.75,-842.11 -915.333,-814.179Z" style="fill:#fff;"/><path d="M1388.536,447.834c22.687,1.337 34.729,4.642 53.458,19.458c37.396,29.583 31.896,70.24 32.312,112.677c0.312,31.696 0.021,64.185 0.042,96.256l-0.042,281.546l-0.021,191c0.104,76.5 17.813,171.083 -86.875,180.771c-18.729,-1.521 -37.042,-7.417 -52.25,-18.667c-18.125,-13.646 -30.167,-33.896 -33.5,-56.354c-3.792,-27.229 -2.396,-91.521 -2.417,-120.771l0.146,-224.923l-0.25,-246.898c-0.021,-42.617 -1.125,-85.369 1.312,-127.902c3.042,-53.344 36.146,-81.546 88.083,-86.194Z" style="fill:#fff;fill-rule:nonzero;"/><path d="M954.307,293.768c50.833,-7.746 152.562,6.977 203.854,19.846c-16.021,27.342 -27.833,57.777 -48.646,81.296c-28.25,-2.873 -52.792,-8.142 -82.625,-9.977c-100.998,-6.017 -201.844,14.008 -292.879,58.154c-141.844,67.523 -251.398,188.181 -304.954,335.867c-56.273,158.131 -45.398,316.131 26.119,467.069c6.867,12.813 10.11,18.896 15.14,32.646c-12.79,21.917 -38.333,58.188 -54.542,77.062c-61.55,-79.5 -102.146,-219.708 -110.26,-319.333c-15.435,-180.1 41.208,-358.96 157.502,-497.335c128.358,-150.698 295.215,-229.817 491.292,-245.294Z" style="fill:#fff;fill-rule:nonzero;"/><path d="M1084.266,655.855c41.083,-1.862 83.271,20.202 92.896,64.019c5.812,26.521 3.188,66.404 3.167,94.45l-0.062,151.219l0.125,183.042c0.021,71.313 17.792,162.708 -74.542,179.312c-40.521,2 -84.167,-20.708 -92.479,-63.625c-5.875,-30.354 -3.708,-68.5 -3.75,-99.979l-0.167,-142.625l-0.083,-181.042c-0.021,-34.45 -0.354,-68.454 0.958,-102.904c1.708,-45.319 30.521,-72.706 73.938,-81.867Z" style="fill:#fff;fill-rule:nonzero;"/><path d="M548.801,1022.314c30.415,-1.792 57.602,8.521 73.169,36.167c9.742,17.125 12.171,37.458 6.74,56.417c-7.921,26.604 -24.744,37.479 -46.875,50c3.913,69.979 2.723,143.25 2.748,213.625c36.64,20.854 56.375,49.771 43.527,92.667c34.581,31.583 69.458,62.833 104.627,93.75c37.646,-26.854 63.29,-22.208 99.044,4.146c11.015,-5.812 92.542,-47.562 93.64,-51.896c8.481,-33.646 57.512,-87.521 101.367,-24.271l294.229,0.104c1.771,-3.688 3.625,-7.333 5.542,-10.958c9.479,-17.75 25.812,-32.729 45.438,-38.229c19.396,-5.396 40.146,-2.729 57.542,7.396c17.708,10.604 30.583,27.729 35.875,47.688c12.125,47.687 -19.292,80.271 -63.562,90.5c-41.021,-0.208 -61.146,-16.083 -78.375,-51.417c-88.5,0.854 -206.312,3.833 -293.042,-0.646c-21.958,41.25 -49.396,39.208 -86.208,20.062l-93.89,51.312l-0.1,2.167c-1.265,24.729 -6.458,46.104 -26.16,63.083c-15.081,12.958 -34.867,19.062 -54.625,16.854c-18.448,-1.833 -35.327,-11.187 -46.658,-25.854c-14.517,-18.896 -17.11,-39.271 -14.052,-62.083c-32.49,-31.188 -73.96,-68.833 -108.279,-97.75c-21.74,8.854 -39.177,14.688 -63.19,6.833c-17.748,-5.729 -32.417,-18.417 -40.654,-35.146c-22.423,-45.479 3.177,-81.083 44.952,-99.479c-2.685,-62.271 -3.198,-149.729 -2.06,-211.375c-4.481,-2.021 -9.079,-4.104 -13.431,-6.396c-17.477,-9.208 -30.531,-25.042 -36.231,-43.958c-5.794,-19 -3.483,-39.542 6.383,-56.771c12.352,-21.417 29.931,-30.354 52.573,-36.542Z" style="fill:#fff;fill-rule:nonzero;"/><path d="M806.684,851.814c58.169,-0.594 85.875,32.258 85.94,88.25c0.106,92.042 -0.063,184.146 0.262,276.167c0.204,57.521 -0.99,96.042 -67.235,112.229c-96.344,3.792 -89.306,-72.708 -89.325,-140.125l0.054,-111.521c0.046,-40.958 0.027,-82.229 0.173,-122.979c0.102,-28.385 0.287,-57.4 21.858,-78.398c14.858,-14.465 28.621,-20.294 48.273,-23.623Z" style="fill:#fff;fill-rule:nonzero;"/></g></svg>