<?xml version="1.0" encoding="UTF-8" standalone="no"?>
<!DOCTYPE svg PUBLIC "-//W3C//DTD SVG 1.1//EN" "http://www.w3.org/Graphics/SVG/1.1/DTD/svg11.dtd">
<svg width="100%" height="100%" viewBox="0 0 474 474" version="1.1" xmlns="http://www.w3.org/2000/svg" xmlns:xlink="http://www.w3.org/1999/xlink" xml:space="preserve" xmlns:serif="http://www.serif.com/" style="fill-rule:evenodd;clip-rule:evenodd;stroke-linejoin:round;stroke-miterlimit:2;">
    <g transform="matrix(1,0,0,1,-309.226245,-382.199746)">
        <g>
            <g transform="matrix(0.5,0,0,0.5,34,107)">
                <path d="M1010.78,550.592C1272.28,543.207 1490.27,749.215 1497.65,1010.72C1505.04,1272.23 1299.03,1490.21 1037.52,1497.6C776.012,1504.98 558.031,1298.98 550.645,1037.47C543.26,775.96 749.267,557.978 1010.78,550.592ZM1000.01,608.953C770.768,622.36 595.799,819.066 609.205,1048.31C622.611,1277.55 819.316,1452.52 1048.56,1439.11C1277.8,1425.71 1452.77,1229 1439.37,999.759C1425.96,770.516 1229.25,595.546 1000.01,608.953Z" style="fill:white;"/>
            </g>
            <g transform="matrix(0.5,0,0,0.5,34,107)">
                <path d="M1216.95,765.36C1227.84,766.002 1233.62,767.588 1242.61,774.7C1260.56,788.9 1257.92,808.415 1258.12,828.785C1258.27,843.999 1258.13,859.594 1258.14,874.988L1258.12,1010.13L1258.11,1101.81C1258.16,1138.53 1266.66,1183.93 1216.41,1188.58C1207.42,1187.85 1198.63,1185.02 1191.33,1179.62C1182.63,1173.07 1176.85,1163.35 1175.25,1152.57C1173.43,1139.5 1174.1,1108.64 1174.09,1094.6L1174.16,986.637L1174.04,868.126C1174.03,847.67 1173.5,827.149 1174.67,806.733C1176.13,781.128 1192.02,767.591 1216.95,765.36Z" style="fill:white;fill-rule:nonzero;"/>
            </g>
            <g transform="matrix(0.5,0,0,0.5,34,107)">
                <path d="M1008.52,691.408C1032.92,687.69 1081.75,694.757 1106.37,700.934C1098.68,714.058 1093.01,728.667 1083.02,739.956C1069.46,738.577 1057.68,736.048 1043.36,735.167C994.881,732.279 946.475,741.891 902.778,763.081C834.693,795.492 782.107,853.408 756.4,924.297C729.389,1000.2 734.609,1076.04 768.937,1148.49C772.233,1154.64 773.79,1157.56 776.204,1164.16C770.065,1174.68 757.804,1192.09 750.024,1201.15C720.48,1162.99 700.994,1095.69 697.099,1047.87C689.69,961.422 716.879,875.569 772.7,809.149C834.312,736.814 914.403,698.837 1008.52,691.408Z" style="fill:white;fill-rule:nonzero;"/>
            </g>
            <g transform="matrix(0.5,0,0,0.5,34,107)">
                <path d="M1070.9,865.21C1090.62,864.316 1110.87,874.907 1115.49,895.939C1118.28,908.669 1117.02,927.813 1117.01,941.275L1116.98,1013.86L1117.04,1101.72C1117.05,1135.95 1125.58,1179.82 1081.26,1187.79C1061.81,1188.75 1040.86,1177.85 1036.87,1157.25C1034.05,1142.68 1035.09,1124.37 1035.07,1109.26L1034.99,1040.8L1034.95,953.9C1034.94,937.364 1034.78,921.042 1035.41,904.506C1036.23,882.753 1050.06,869.607 1070.9,865.21Z" style="fill:white;fill-rule:nonzero;"/>
            </g>
            <g transform="matrix(0.5,0,0,0.5,34,107)">
                <path d="M813.877,1041.11C828.476,1040.25 841.526,1045.2 848.998,1058.47C853.674,1066.69 854.84,1076.45 852.233,1085.55C848.431,1098.32 840.356,1103.54 829.733,1109.55C831.611,1143.14 831.04,1178.31 831.052,1212.09C848.639,1222.1 858.112,1235.98 851.945,1256.57C868.544,1271.73 885.285,1286.73 902.166,1301.57C920.236,1288.68 932.545,1290.91 949.707,1303.56C954.994,1300.77 994.127,1280.73 994.654,1278.65C998.725,1262.5 1022.26,1236.64 1043.31,1267L1184.54,1267.05C1185.39,1265.28 1186.28,1263.53 1187.2,1261.79C1191.75,1253.27 1199.59,1246.08 1209.01,1243.44C1218.32,1240.85 1228.28,1242.13 1236.63,1246.99C1245.13,1252.08 1251.31,1260.3 1253.85,1269.88C1259.67,1292.77 1244.59,1308.41 1223.34,1313.32C1203.65,1313.22 1193.99,1305.6 1185.72,1288.64C1143.24,1289.05 1086.69,1290.48 1045.06,1288.33C1034.52,1308.13 1021.35,1307.15 1003.68,1297.96L958.613,1322.59L958.565,1323.63C957.958,1335.5 955.465,1345.76 946.008,1353.91C938.769,1360.13 929.272,1363.06 919.788,1362C910.933,1361.12 902.831,1356.63 897.392,1349.59C890.424,1340.52 889.179,1330.74 890.647,1319.79C875.052,1304.82 855.146,1286.75 838.673,1272.87C828.238,1277.12 819.868,1279.92 808.342,1276.15C799.823,1273.4 792.782,1267.31 788.828,1259.28C778.065,1237.45 790.353,1220.36 810.405,1211.53C809.116,1181.64 808.87,1139.66 809.416,1110.07C807.265,1109.1 805.058,1108.1 802.969,1107C794.58,1102.58 788.314,1094.98 785.578,1085.9C782.797,1076.78 783.906,1066.92 788.642,1058.65C794.571,1048.37 803.009,1044.08 813.877,1041.11Z" style="fill:white;fill-rule:nonzero;"/>
            </g>
            <g transform="matrix(0.5,0,0,0.5,34,107)">
                <path d="M937.661,959.27C965.582,958.985 978.881,974.754 978.912,1001.63C978.963,1045.81 978.882,1090.02 979.038,1134.19C979.136,1161.8 978.563,1180.29 946.765,1188.06C900.52,1189.88 903.898,1153.16 903.889,1120.8L903.915,1067.27C903.937,1047.61 903.928,1027.8 903.998,1008.24C904.047,994.615 904.136,980.688 914.49,970.609C921.622,963.666 928.228,960.868 937.661,959.27Z" style="fill:white;fill-rule:nonzero;"/>
            </g>
        </g>
    </g>
</svg>
