<svg xmlns="http://www.w3.org/2000/svg" xmlns:xlink="http://www.w3.org/1999/xlink" width="160" zoomAndPan="magnify" viewBox="0 0 120 119.999999" height="160" preserveAspectRatio="xMidYMid meet" version="1.0"><path fill="#fb6422" d="M 58.269531 0.0234375 C 91.371094 -0.910156 118.964844 25.167969 119.898438 58.269531 C 120.832031 91.371094 94.757812 118.964844 61.652344 119.898438 C 28.550781 120.832031 0.960938 94.757812 0.0234375 61.65625 C -0.910156 28.550781 25.167969 0.960938 58.269531 0.0234375 Z M 56.90625 7.410156 C 27.886719 9.109375 5.738281 34.007812 7.4375 63.027344 C 9.132812 92.042969 34.035156 114.191406 63.050781 112.496094 C 92.070312 110.796875 114.21875 85.898438 112.519531 56.882812 C 110.824219 27.863281 85.921875 5.714844 56.90625 7.410156 Z M 56.90625 7.410156 " fill-opacity="1" fill-rule="evenodd"/><path fill="#fb6422" d="M 84.367188 27.210938 C 85.746094 27.292969 86.476562 27.492188 87.613281 28.390625 C 89.886719 30.191406 89.554688 32.660156 89.578125 35.238281 C 89.597656 37.164062 89.578125 39.136719 89.582031 41.085938 L 89.578125 58.195312 L 89.578125 69.796875 C 89.582031 74.445312 90.660156 80.195312 84.296875 80.78125 C 83.160156 80.691406 82.046875 80.332031 81.125 79.648438 C 80.023438 78.820312 79.289062 77.589844 79.089844 76.222656 C 78.859375 74.570312 78.941406 70.664062 78.941406 68.886719 L 78.949219 55.21875 L 78.933594 40.21875 C 78.933594 37.628906 78.867188 35.03125 79.015625 32.449219 C 79.199219 29.207031 81.210938 27.492188 84.367188 27.210938 Z M 84.367188 27.210938 " fill-opacity="1" fill-rule="nonzero"/><path fill="#fb6422" d="M 57.984375 17.847656 C 61.070312 17.378906 67.253906 18.273438 70.371094 19.054688 C 69.394531 20.714844 68.679688 22.566406 67.414062 23.996094 C 65.695312 23.820312 64.207031 23.5 62.394531 23.386719 C 56.257812 23.023438 50.128906 24.238281 44.597656 26.921875 C 35.980469 31.023438 29.324219 38.355469 26.070312 47.328125 C 22.648438 56.9375 23.3125 66.535156 27.65625 75.707031 C 28.074219 76.484375 28.269531 76.855469 28.574219 77.691406 C 27.800781 79.023438 26.246094 81.226562 25.261719 82.375 C 21.523438 77.542969 19.054688 69.023438 18.5625 62.972656 C 17.625 52.027344 21.066406 41.160156 28.132812 32.753906 C 35.929688 23.597656 46.070312 18.789062 57.984375 17.847656 Z M 57.984375 17.847656 " fill-opacity="1" fill-rule="nonzero"/><path fill="#fb6422" d="M 65.878906 39.847656 C 68.375 39.734375 70.9375 41.078125 71.523438 43.738281 C 71.875 45.351562 71.71875 47.773438 71.714844 49.476562 L 71.710938 58.664062 L 71.71875 69.789062 C 71.722656 74.121094 72.800781 79.671875 67.191406 80.683594 C 64.730469 80.804688 62.078125 79.425781 61.570312 76.816406 C 61.214844 74.972656 61.347656 72.65625 61.34375 70.742188 L 61.332031 62.074219 L 61.328125 51.074219 C 61.328125 48.984375 61.308594 46.917969 61.386719 44.824219 C 61.492188 42.070312 63.242188 40.40625 65.878906 39.847656 Z M 65.878906 39.847656 " fill-opacity="1" fill-rule="nonzero"/><path fill="#fb6422" d="M 33.34375 62.117188 C 35.191406 62.007812 36.84375 62.632812 37.789062 64.3125 C 38.382812 65.351562 38.53125 66.589844 38.199219 67.742188 C 37.71875 69.355469 36.695312 70.019531 35.351562 70.777344 C 35.589844 75.03125 35.515625 79.480469 35.519531 83.757812 C 37.746094 85.023438 38.945312 86.78125 38.164062 89.390625 C 40.265625 91.308594 42.382812 93.207031 44.519531 95.085938 C 46.808594 93.453125 48.367188 93.734375 50.539062 95.335938 C 51.207031 94.984375 56.160156 92.445312 56.226562 92.183594 C 56.742188 90.140625 59.722656 86.867188 62.386719 90.707031 L 80.265625 90.714844 C 80.371094 90.492188 80.484375 90.269531 80.601562 90.050781 C 81.175781 88.972656 82.167969 88.0625 83.363281 87.726562 C 84.539062 87.398438 85.800781 87.5625 86.859375 88.175781 C 87.933594 88.820312 88.714844 89.859375 89.039062 91.074219 C 89.773438 93.972656 87.867188 95.949219 85.175781 96.570312 C 82.683594 96.558594 81.460938 95.59375 80.414062 93.449219 C 75.035156 93.5 67.878906 93.679688 62.609375 93.410156 C 61.273438 95.914062 59.605469 95.792969 57.371094 94.628906 L 51.664062 97.746094 L 51.660156 97.878906 C 51.582031 99.378906 51.265625 100.679688 50.070312 101.710938 C 49.152344 102.496094 47.953125 102.867188 46.75 102.734375 C 45.628906 102.621094 44.605469 102.054688 43.917969 101.164062 C 43.035156 100.015625 42.875 98.777344 43.0625 97.390625 C 41.089844 95.496094 38.570312 93.207031 36.484375 91.453125 C 35.164062 91.988281 34.101562 92.34375 32.644531 91.867188 C 31.566406 91.519531 30.675781 90.75 30.175781 89.730469 C 28.8125 86.96875 30.367188 84.804688 32.90625 83.6875 C 32.742188 79.902344 32.710938 74.589844 32.78125 70.84375 C 32.507812 70.722656 32.230469 70.59375 31.964844 70.457031 C 30.902344 69.894531 30.109375 68.933594 29.761719 67.785156 C 29.410156 66.628906 29.550781 65.382812 30.152344 64.335938 C 30.902344 63.035156 31.96875 62.492188 33.34375 62.117188 Z M 33.34375 62.117188 " fill-opacity="1" fill-rule="nonzero"/><path fill="#fb6422" d="M 49.015625 51.753906 C 52.546875 51.71875 54.230469 53.714844 54.234375 57.117188 C 54.242188 62.710938 54.230469 68.304688 54.25 73.898438 C 54.265625 77.390625 54.191406 79.734375 50.167969 80.714844 C 44.3125 80.945312 44.738281 76.296875 44.738281 72.203125 L 44.742188 65.425781 C 44.746094 62.9375 44.742188 60.429688 44.753906 57.953125 C 44.757812 56.230469 44.769531 54.46875 46.082031 53.191406 C 46.984375 52.3125 47.820312 51.957031 49.015625 51.753906 Z M 49.015625 51.753906 " fill-opacity="1" fill-rule="nonzero"/></svg>