<svg xmlns="http://www.w3.org/2000/svg" xmlns:xlink="http://www.w3.org/1999/xlink" width="250" zoomAndPan="magnify" viewBox="0 0 187.5 187.499992" height="250" preserveAspectRatio="xMidYMid meet" version="1.0"><path fill="#fb6422" d="M 90.804688 0.0390625 C 142.386719 -1.417969 185.386719 39.21875 186.84375 90.800781 C 188.300781 142.386719 147.664062 185.386719 96.078125 186.84375 C 44.492188 188.300781 1.496094 147.664062 0.0390625 96.078125 C -1.417969 44.492188 39.21875 1.496094 90.804688 0.0390625 Z M 88.679688 11.550781 C 43.460938 14.195312 8.945312 52.996094 11.589844 98.21875 C 14.234375 143.4375 53.035156 177.953125 98.257812 175.304688 C 143.476562 172.664062 177.988281 133.859375 175.347656 88.640625 C 172.703125 43.421875 133.898438 8.90625 88.679688 11.550781 Z M 88.679688 11.550781 " fill-opacity="1" fill-rule="evenodd"/><path fill="#fb6422" d="M 131.472656 42.402344 C 133.621094 42.53125 134.761719 42.84375 136.535156 44.246094 C 140.074219 47.046875 139.554688 50.894531 139.59375 54.914062 C 139.625 57.914062 139.59375 60.992188 139.597656 64.027344 L 139.59375 90.6875 L 139.589844 108.769531 C 139.601562 116.015625 141.277344 124.96875 131.367188 125.886719 C 129.59375 125.742188 127.859375 125.183594 126.417969 124.121094 C 124.703125 122.828125 123.5625 120.910156 123.246094 118.785156 C 122.886719 116.207031 123.019531 110.117188 123.019531 107.347656 L 123.03125 86.050781 L 123.007812 62.675781 C 123.007812 58.640625 122.902344 54.589844 123.132812 50.5625 C 123.421875 45.511719 126.554688 42.84375 131.472656 42.402344 Z M 131.472656 42.402344 " fill-opacity="1" fill-rule="nonzero"/><path fill="#fb6422" d="M 90.359375 27.816406 C 95.171875 27.082031 104.804688 28.476562 109.660156 29.695312 C 108.144531 32.28125 107.023438 35.164062 105.054688 37.390625 C 102.378906 37.121094 100.054688 36.621094 97.230469 36.445312 C 87.667969 35.878906 78.117188 37.773438 69.5 41.953125 C 56.070312 48.347656 45.695312 59.769531 40.625 73.753906 C 35.296875 88.726562 36.328125 103.6875 43.097656 117.980469 C 43.75 119.191406 44.054688 119.769531 44.53125 121.070312 C 43.320312 123.144531 40.902344 126.578125 39.367188 128.367188 C 33.539062 120.839844 29.695312 107.5625 28.925781 98.128906 C 27.464844 81.078125 32.828125 64.140625 43.839844 51.039062 C 55.992188 36.773438 71.792969 29.28125 90.359375 27.816406 Z M 90.359375 27.816406 " fill-opacity="1" fill-rule="nonzero"/><path fill="#fb6422" d="M 102.664062 62.097656 C 106.554688 61.921875 110.546875 64.011719 111.457031 68.160156 C 112.007812 70.671875 111.761719 74.449219 111.757812 77.105469 L 111.753906 91.421875 L 111.765625 108.753906 C 111.765625 115.503906 113.449219 124.160156 104.707031 125.730469 C 100.871094 125.921875 96.738281 123.769531 95.949219 119.707031 C 95.394531 116.832031 95.597656 113.222656 95.59375 110.238281 L 95.578125 96.734375 L 95.570312 79.59375 C 95.570312 76.332031 95.539062 73.113281 95.664062 69.851562 C 95.824219 65.558594 98.550781 62.964844 102.664062 62.097656 Z M 102.664062 62.097656 " fill-opacity="1" fill-rule="nonzero"/><path fill="#fb6422" d="M 51.960938 96.796875 C 54.84375 96.628906 57.417969 97.605469 58.890625 100.222656 C 59.8125 101.84375 60.042969 103.769531 59.527344 105.5625 C 58.777344 108.082031 57.1875 109.113281 55.089844 110.296875 C 55.460938 116.921875 55.347656 123.859375 55.351562 130.523438 C 58.820312 132.5 60.6875 135.238281 59.472656 139.296875 C 62.746094 142.289062 66.046875 145.246094 69.378906 148.175781 C 72.941406 145.632812 75.371094 146.070312 78.757812 148.566406 C 79.800781 148.015625 87.519531 144.0625 87.621094 143.652344 C 88.425781 140.46875 93.066406 135.367188 97.21875 141.355469 L 125.078125 141.367188 C 125.246094 141.015625 125.421875 140.671875 125.605469 140.328125 C 126.5 138.648438 128.046875 137.230469 129.90625 136.707031 C 131.742188 136.199219 133.707031 136.449219 135.355469 137.410156 C 137.03125 138.414062 138.25 140.035156 138.75 141.925781 C 139.898438 146.4375 136.925781 149.523438 132.734375 150.492188 C 128.847656 150.472656 126.945312 148.96875 125.3125 145.625 C 116.933594 145.707031 105.777344 145.988281 97.566406 145.5625 C 95.488281 149.46875 92.886719 149.277344 89.402344 147.460938 L 80.511719 152.320312 L 80.503906 152.527344 C 80.382812 154.867188 79.890625 156.890625 78.027344 158.5 C 76.597656 159.726562 74.726562 160.304688 72.855469 160.09375 C 71.109375 159.921875 69.507812 159.035156 68.4375 157.648438 C 67.0625 155.859375 66.816406 153.929688 67.105469 151.769531 C 64.03125 148.816406 60.101562 145.25 56.855469 142.511719 C 54.796875 143.351562 53.144531 143.90625 50.871094 143.160156 C 49.191406 142.617188 47.800781 141.417969 47.023438 139.832031 C 44.898438 135.527344 47.324219 132.15625 51.277344 130.414062 C 51.023438 124.519531 50.976562 116.238281 51.082031 110.398438 C 50.660156 110.207031 50.222656 110.011719 49.8125 109.792969 C 48.15625 108.921875 46.921875 107.421875 46.378906 105.632812 C 45.832031 103.832031 46.050781 101.886719 46.984375 100.257812 C 48.15625 98.230469 49.820312 97.382812 51.960938 96.796875 Z M 51.960938 96.796875 " fill-opacity="1" fill-rule="nonzero"/><path fill="#fb6422" d="M 76.378906 80.652344 C 81.886719 80.597656 84.511719 83.707031 84.515625 89.007812 C 84.527344 97.722656 84.511719 106.445312 84.542969 115.15625 C 84.5625 120.605469 84.449219 124.25 78.175781 125.785156 C 69.054688 126.144531 69.71875 118.898438 69.71875 112.515625 L 69.722656 101.957031 C 69.726562 98.078125 69.726562 94.171875 69.738281 90.3125 C 69.75 87.625 69.765625 84.878906 71.808594 82.890625 C 73.214844 81.519531 74.519531 80.96875 76.378906 80.652344 Z M 76.378906 80.652344 " fill-opacity="1" fill-rule="nonzero"/></svg>