<svg xmlns="http://www.w3.org/2000/svg" xmlns:xlink="http://www.w3.org/1999/xlink" width="100" zoomAndPan="magnify" viewBox="0 0 75 74.999997" height="100" preserveAspectRatio="xMidYMid meet" version="1.0"><path fill="#fb6422" d="M 36.417969 0.015625 C 57.105469 -0.570312 74.351562 15.730469 74.9375 36.417969 C 75.519531 57.105469 59.222656 74.351562 38.535156 74.9375 C 17.84375 75.519531 0.597656 59.222656 0.015625 38.535156 C -0.570312 17.84375 15.730469 0.597656 36.417969 0.015625 Z M 35.566406 4.632812 C 17.429688 5.691406 3.585938 21.253906 4.648438 39.390625 C 5.707031 57.527344 21.269531 71.371094 39.40625 70.308594 C 57.542969 69.25 71.386719 53.6875 70.324219 35.550781 C 69.265625 17.414062 53.703125 3.570312 35.566406 4.632812 Z M 35.566406 4.632812 " fill-opacity="1" fill-rule="evenodd"/><path fill="#fb6422" d="M 52.730469 17.007812 C 53.589844 17.058594 54.046875 17.183594 54.757812 17.746094 C 56.179688 18.867188 55.96875 20.414062 55.988281 22.023438 C 56 23.226562 55.988281 24.460938 55.988281 25.679688 L 55.988281 36.371094 L 55.984375 43.625 C 55.988281 46.53125 56.660156 50.121094 52.6875 50.488281 C 51.976562 50.429688 51.28125 50.207031 50.703125 49.78125 C 50.015625 49.261719 49.558594 48.492188 49.429688 47.640625 C 49.285156 46.605469 49.339844 44.164062 49.339844 43.054688 L 49.34375 34.511719 L 49.335938 25.136719 C 49.332031 23.519531 49.292969 21.894531 49.382812 20.28125 C 49.5 18.253906 50.757812 17.183594 52.730469 17.007812 Z M 52.730469 17.007812 " fill-opacity="1" fill-rule="nonzero"/><path fill="#fb6422" d="M 36.238281 11.15625 C 38.167969 10.863281 42.03125 11.421875 43.980469 11.910156 C 43.371094 12.949219 42.925781 14.101562 42.132812 14.996094 C 41.0625 14.886719 40.128906 14.6875 38.996094 14.617188 C 35.160156 14.390625 31.332031 15.148438 27.875 16.824219 C 22.488281 19.390625 18.328125 23.972656 16.292969 29.582031 C 14.15625 35.585938 14.570312 41.585938 17.285156 47.316406 C 17.546875 47.804688 17.667969 48.035156 17.859375 48.558594 C 17.375 49.390625 16.40625 50.765625 15.789062 51.484375 C 13.453125 48.464844 11.910156 43.140625 11.601562 39.355469 C 11.015625 32.519531 13.167969 25.726562 17.582031 20.46875 C 22.457031 14.746094 28.792969 11.742188 36.238281 11.15625 Z M 36.238281 11.15625 " fill-opacity="1" fill-rule="nonzero"/><path fill="#fb6422" d="M 41.175781 24.90625 C 42.734375 24.835938 44.335938 25.671875 44.703125 27.335938 C 44.921875 28.34375 44.824219 29.859375 44.824219 30.921875 L 44.820312 36.667969 L 44.824219 43.617188 C 44.824219 46.324219 45.5 49.796875 41.996094 50.425781 C 40.457031 50.503906 38.796875 49.640625 38.480469 48.011719 C 38.257812 46.859375 38.339844 45.410156 38.339844 44.214844 L 38.332031 38.796875 L 38.332031 31.921875 C 38.328125 30.613281 38.316406 29.324219 38.367188 28.015625 C 38.433594 26.292969 39.527344 25.253906 41.175781 24.90625 Z M 41.175781 24.90625 " fill-opacity="1" fill-rule="nonzero"/><path fill="#fb6422" d="M 20.839844 38.820312 C 21.996094 38.753906 23.027344 39.144531 23.617188 40.195312 C 23.988281 40.847656 24.082031 41.617188 23.875 42.335938 C 23.574219 43.347656 22.933594 43.761719 22.09375 44.238281 C 22.242188 46.894531 22.199219 49.675781 22.199219 52.347656 C 23.589844 53.140625 24.339844 54.238281 23.851562 55.867188 C 25.164062 57.066406 26.488281 58.253906 27.824219 59.429688 C 29.253906 58.410156 30.230469 58.585938 31.585938 59.585938 C 32.003906 59.363281 35.101562 57.78125 35.140625 57.613281 C 35.464844 56.335938 37.328125 54.292969 38.992188 56.691406 L 50.164062 56.695312 C 50.230469 56.558594 50.304688 56.417969 50.375 56.28125 C 50.734375 55.605469 51.355469 55.039062 52.101562 54.828125 C 52.835938 54.625 53.625 54.726562 54.285156 55.109375 C 54.957031 55.511719 55.449219 56.164062 55.648438 56.921875 C 56.109375 58.730469 54.914062 59.96875 53.234375 60.359375 C 51.675781 60.351562 50.914062 59.746094 50.257812 58.40625 C 46.898438 58.4375 42.425781 58.550781 39.128906 58.378906 C 38.296875 59.945312 37.253906 59.871094 35.855469 59.140625 L 32.292969 61.089844 L 32.289062 61.171875 C 32.238281 62.113281 32.042969 62.925781 31.292969 63.570312 C 30.722656 64.0625 29.96875 64.292969 29.21875 64.207031 C 28.519531 64.140625 27.878906 63.785156 27.449219 63.226562 C 26.894531 62.507812 26.796875 61.734375 26.914062 60.871094 C 25.679688 59.683594 24.105469 58.253906 22.800781 57.15625 C 21.976562 57.492188 21.316406 57.714844 20.402344 57.417969 C 19.730469 57.199219 19.171875 56.71875 18.859375 56.082031 C 18.007812 54.355469 18.980469 53.003906 20.566406 52.304688 C 20.464844 49.941406 20.445312 46.617188 20.488281 44.277344 C 20.316406 44.199219 20.144531 44.121094 19.976562 44.035156 C 19.3125 43.683594 18.816406 43.082031 18.601562 42.367188 C 18.382812 41.644531 18.46875 40.863281 18.84375 40.210938 C 19.3125 39.394531 19.980469 39.058594 20.839844 38.820312 Z M 20.839844 38.820312 " fill-opacity="1" fill-rule="nonzero"/><path fill="#fb6422" d="M 30.632812 32.347656 C 32.84375 32.324219 33.894531 33.574219 33.898438 35.699219 C 33.902344 39.195312 33.894531 42.691406 33.90625 46.1875 C 33.914062 48.371094 33.871094 49.832031 31.355469 50.449219 C 27.695312 50.59375 27.960938 47.6875 27.960938 45.125 L 27.964844 40.890625 C 27.964844 39.335938 27.964844 37.769531 27.96875 36.222656 C 27.972656 35.144531 27.980469 34.042969 28.800781 33.246094 C 29.363281 32.695312 29.886719 32.472656 30.632812 32.347656 Z M 30.632812 32.347656 " fill-opacity="1" fill-rule="nonzero"/></svg>