<svg xmlns="http://www.w3.org/2000/svg" xmlns:xlink="http://www.w3.org/1999/xlink" width="64" zoomAndPan="magnify" viewBox="0 0 48 48" height="64" preserveAspectRatio="xMidYMid meet" version="1.0"><defs><clipPath id="b07ca1cd59"><path d="M 0.488281 0 L 47.507812 0 L 47.507812 47 L 0.488281 47 Z M 0.488281 0 " clip-rule="nonzero"/></clipPath></defs><g clip-path="url(#b07ca1cd59)"><path fill="#fb6422" d="M 23.320312 0.0078125 C 36.292969 -0.355469 47.105469 9.859375 47.46875 22.832031 C 47.835938 35.800781 37.617188 46.613281 24.648438 46.980469 C 11.675781 47.347656 0.867188 37.128906 0.5 24.160156 C 0.132812 11.1875 10.351562 0.375 23.320312 0.0078125 Z M 22.789062 2.902344 C 11.417969 3.570312 2.738281 13.324219 3.402344 24.695312 C 4.070312 36.066406 13.824219 44.746094 25.195312 44.078125 C 36.566406 43.414062 45.246094 33.660156 44.578125 22.289062 C 43.914062 10.917969 34.15625 2.238281 22.789062 2.902344 Z M 22.789062 2.902344 " fill-opacity="1" fill-rule="evenodd"/></g><path fill="#fb6422" d="M 33.546875 10.660156 C 34.089844 10.695312 34.375 10.773438 34.820312 11.125 C 35.710938 11.828125 35.578125 12.796875 35.589844 13.808594 C 35.597656 14.5625 35.589844 15.335938 35.589844 16.097656 L 35.589844 27.351562 C 35.589844 29.171875 36.011719 31.421875 33.519531 31.652344 C 33.074219 31.617188 32.640625 31.476562 32.277344 31.210938 C 31.84375 30.882812 31.558594 30.402344 31.480469 29.867188 C 31.390625 29.21875 31.421875 27.6875 31.421875 26.992188 L 31.425781 21.636719 L 31.417969 15.757812 C 31.417969 14.746094 31.394531 13.726562 31.449219 12.714844 C 31.523438 11.445312 32.3125 10.773438 33.546875 10.660156 Z M 33.546875 10.660156 " fill-opacity="1" fill-rule="nonzero"/><path fill="#fb6422" d="M 23.210938 6.992188 C 24.421875 6.808594 26.84375 7.160156 28.0625 7.464844 C 27.683594 8.117188 27.402344 8.84375 26.90625 9.402344 C 26.230469 9.332031 25.648438 9.207031 24.9375 9.164062 C 22.535156 9.019531 20.132812 9.496094 17.964844 10.550781 C 14.589844 12.15625 11.980469 15.027344 10.703125 18.546875 C 9.363281 22.308594 9.625 26.070312 11.328125 29.664062 C 11.488281 29.96875 11.566406 30.113281 11.6875 30.441406 C 11.382812 30.964844 10.773438 31.828125 10.386719 32.277344 C 8.921875 30.382812 7.957031 27.046875 7.761719 24.675781 C 7.394531 20.386719 8.746094 16.128906 11.511719 12.832031 C 14.570312 9.246094 18.542969 7.363281 23.210938 6.992188 Z M 23.210938 6.992188 " fill-opacity="1" fill-rule="nonzero"/><path fill="#fb6422" d="M 26.304688 15.613281 C 27.28125 15.570312 28.285156 16.09375 28.515625 17.136719 C 28.652344 17.769531 28.589844 18.71875 28.589844 19.386719 L 28.589844 22.988281 L 28.59375 27.34375 C 28.59375 29.042969 29.015625 31.21875 26.816406 31.613281 C 25.851562 31.660156 24.8125 31.121094 24.617188 30.097656 C 24.476562 29.375 24.527344 28.46875 24.527344 27.71875 L 24.523438 24.324219 L 24.519531 20.011719 C 24.519531 19.191406 24.511719 18.382812 24.542969 17.5625 C 24.585938 16.484375 25.269531 15.832031 26.304688 15.613281 Z M 26.304688 15.613281 " fill-opacity="1" fill-rule="nonzero"/><path fill="#fb6422" d="M 13.554688 24.339844 C 14.28125 24.296875 14.925781 24.542969 15.296875 25.199219 C 15.53125 25.609375 15.585938 26.09375 15.457031 26.542969 C 15.269531 27.175781 14.867188 27.433594 14.34375 27.734375 C 14.433594 29.398438 14.40625 31.144531 14.40625 32.820312 C 15.28125 33.316406 15.75 34.003906 15.445312 35.027344 C 16.265625 35.777344 17.097656 36.523438 17.933594 37.257812 C 18.832031 36.617188 19.441406 36.730469 20.292969 37.355469 C 20.554688 37.21875 22.496094 36.222656 22.523438 36.121094 C 22.722656 35.320312 23.890625 34.039062 24.933594 35.542969 L 31.941406 35.546875 C 31.984375 35.457031 32.027344 35.371094 32.070312 35.285156 C 32.296875 34.863281 32.6875 34.503906 33.152344 34.375 C 33.617188 34.246094 34.109375 34.308594 34.523438 34.550781 C 34.945312 34.804688 35.253906 35.210938 35.378906 35.6875 C 35.667969 36.820312 34.917969 37.597656 33.863281 37.839844 C 32.886719 37.835938 32.410156 37.457031 32 36.617188 C 29.890625 36.636719 27.085938 36.707031 25.023438 36.601562 C 24.5 37.582031 23.847656 37.535156 22.96875 37.078125 L 20.734375 38.300781 L 20.730469 38.351562 C 20.703125 38.941406 20.578125 39.449219 20.109375 39.855469 C 19.75 40.164062 19.277344 40.308594 18.808594 40.253906 C 18.371094 40.210938 17.96875 39.988281 17.699219 39.640625 C 17.351562 39.191406 17.289062 38.703125 17.363281 38.160156 C 16.589844 37.417969 15.601562 36.523438 14.785156 35.835938 C 14.269531 36.046875 13.851562 36.183594 13.28125 35.996094 C 12.859375 35.859375 12.507812 35.558594 12.3125 35.160156 C 11.777344 34.078125 12.390625 33.230469 13.382812 32.792969 C 13.320312 31.308594 13.308594 29.226562 13.335938 27.757812 C 13.226562 27.710938 13.117188 27.660156 13.015625 27.605469 C 12.597656 27.386719 12.289062 27.011719 12.152344 26.5625 C 12.015625 26.109375 12.070312 25.621094 12.304688 25.210938 C 12.597656 24.699219 13.015625 24.488281 13.554688 24.339844 Z M 13.554688 24.339844 " fill-opacity="1" fill-rule="nonzero"/><path fill="#fb6422" d="M 19.695312 20.28125 C 21.078125 20.265625 21.738281 21.046875 21.742188 22.378906 C 21.742188 24.570312 21.738281 26.765625 21.746094 28.957031 C 21.753906 30.324219 21.722656 31.242188 20.148438 31.628906 C 17.851562 31.71875 18.019531 29.898438 18.019531 28.292969 L 18.019531 25.636719 C 18.023438 24.660156 18.023438 23.679688 18.027344 22.707031 C 18.027344 22.03125 18.03125 21.34375 18.546875 20.84375 C 18.898438 20.496094 19.226562 20.359375 19.695312 20.28125 Z M 19.695312 20.28125 " fill-opacity="1" fill-rule="nonzero"/></svg>