<svg viewBox="0 0 23668 11900" fill="#1a1a1a" xmlns="http://www.w3.org/2000/svg">
  <g transform="matrix(1,0,0,1,29.598245,-753.087704)">
    <g transform="matrix(36.755268,0,0,36.755268,-178.73778,607.945184)">
      <g>
        <path d="M628.087,232.001C626.107,233.533 626.201,233.617 624.257,235.206C623.34,235.956 611.959,243.524 601.457,247.386C598.492,248.476 598.481,248.399 595.42,249.18C593.446,249.684 593.488,249.775 591.448,250.073C589.331,250.381 589.422,250.777 587.54,250.941C585.503,251.119 585.533,251.191 583.551,251.685C580.896,252.348 580.672,251.39 576.525,252.577C573.386,253.476 571.299,252.452 567.464,253.359C564.557,254.047 564.516,253.969 520.5,253.969C485.03,253.969 485.034,253.962 482.501,254.031C479.625,254.11 478.801,253.53 476.274,250.696C475.004,249.272 474.855,248.348 472.259,245.74C467.98,241.444 467.718,241.689 464.043,236.87C460.97,232.841 460.255,233.451 457.029,228.85C455.833,227.143 450.653,222.311 449.894,221.208C446.644,216.487 446.121,216.949 442.274,212.699C439.442,209.571 439.796,209.279 436.259,205.741C431.726,201.205 430.741,200.86 431.722,198.596C435.199,190.572 434.862,190.451 438.309,182.415C439.011,180.779 442.779,170.723 443.814,167.6C445.804,161.596 445.521,161.525 447.566,155.525C447.681,155.187 452.193,139.996 451.875,138.413C451.652,137.3 451.136,137.177 445.37,133.731C443.94,132.876 438.041,130.045 434.354,127.744C432.239,126.425 428.448,125.061 423.294,121.841C420.843,120.31 419.411,119.978 416.243,117.891C412.184,115.216 410.178,115.585 410.038,112.526C409.981,111.271 410.12,16.582 409.968,11.501C409.827,6.782 411.773,7.479 416.494,7.661C420.571,7.818 420.571,7.549 467.499,7.711C481.373,7.759 481.357,7.525 500.499,7.652C518.717,7.774 518.706,7.336 547.499,7.6C553.002,7.651 553.01,7.032 558.45,7.814C561.135,8.2 563.561,7.581 566.529,8.406C570.138,9.409 570.26,8.636 572.572,9.223C573.199,9.382 573.794,9.658 574.425,9.801C575.13,9.961 575.857,10.002 576.569,10.131C576.895,10.19 576.877,10.245 580.583,11.167C587.918,12.991 597.605,17.166 601.32,19.765C604.986,22.329 605.256,21.952 608.288,24.736C610.482,26.749 610.856,26.38 613.26,28.744C618.706,34.1 618.265,34.455 619.281,35.675C623.014,40.155 627.608,48.87 628.971,55.422C629.331,57.154 629.818,57.749 629.944,59.466C630.313,64.509 630.929,64.441 630.968,69.499C631.021,76.416 630.917,76.405 630.587,77.528C629.444,81.414 630.627,81.62 629.428,85.475C628.948,87.017 629.267,87.102 627.737,91.586C625.393,98.453 623.177,100.693 621.527,103.517C621.241,104.007 620.646,105.024 616.876,108.869C615.08,110.699 614.979,110.568 612.732,112.742C612.408,113.056 612.125,113.329 608.244,116.152C606.806,117.198 599.659,121.109 594.576,122.703C591.176,123.769 589.779,123.601 589.097,124.207C588.357,124.863 588.754,125.999 590.564,126.175C591.022,126.219 593.816,126.098 594.564,126.271C595.195,126.417 595.797,126.671 596.427,126.817C597.266,127.012 598.379,126.782 600.519,127.444C603.125,128.251 610.77,129.253 621.766,136.091C624.248,137.634 624.093,137.826 626.398,139.636C627.841,140.77 628.044,140.526 631.26,143.74C635.786,148.265 635.479,148.514 635.927,149.205C636.55,150.167 638.398,150.995 643.271,161.605C643.884,162.938 646.56,170.116 646.98,174.471C647.375,178.573 647.956,178.498 647.969,183.5C647.985,189.947 648.074,189.964 647.294,193.448C646.705,196.075 647.471,196.198 646.454,199.484C646.45,199.494 645.102,208.155 639.643,217.586C639.422,217.968 634.985,224.434 634.237,225.261C631.169,228.654 631.579,229.02 628.087,232.001L572.919,193.956C574.225,192.549 574.222,192.561 574.359,192.391C577.766,188.163 579.083,183.828 579.029,181.497C578.856,173.97 579.096,173.942 578.624,172.455C576.776,166.626 574.69,165.216 573.801,164.231C566.892,156.576 559.071,156.64 555.49,155.529C552.155,154.495 534.305,154.293 530.498,154.348C508.911,154.661 494.158,154.024 483.495,154.267C480.587,154.333 479.853,154.733 479.969,158.501C480.124,163.546 479.982,197.662 480.035,199.53C480.088,201.399 480.601,202.121 483.502,202.031C488.296,201.883 542.4,202.01 550.504,201.966C553.602,201.95 553.509,201.365 556.543,200.971C558.631,200.699 558.565,200.487 560.6,199.985C569.222,197.857 571.493,195.12 572.919,193.956L628.087,232.001L543.466,102.001C546.514,101.184 554.033,100.038 557.705,96.734C561.963,92.901 562.82,90.933 563.088,90.318C564.532,87.003 564.608,87.026 565.129,83.438C565.249,82.612 565.86,80.65 565.864,79.506C565.865,79.129 564.832,73.891 564.258,72.608C562.982,69.756 562.642,68.977 559.277,65.735C554.8,61.423 553.606,61.39 547.508,59.477C544.757,58.614 543.781,59.179 541.448,58.743C536.554,57.828 534.77,58.124 519.503,58.083C485.615,57.99 485.622,57.946 482.47,58.036C480.602,58.089 479.879,58.6 479.969,61.502C480.121,66.417 479.988,94.653 480.033,99.515C480.063,102.737 481.103,102.681 485.498,102.718C487.338,102.734 504.008,102.874 508.502,102.863C537.513,102.787 537.552,103.032 539.499,102.496C542.033,101.798 542.059,102.051 543.466,102.001L628.087,232.001Z"/>
        <path d="M210.107,140.003C207.783,141.738 207.879,141.83 205.683,143.721C205.379,143.983 205.305,143.882 201.648,146.704C200.665,147.462 190.44,153.73 182.622,155.98C182.102,156.13 176.978,157.604 176.189,158.072C174.058,159.338 176.411,160.55 177.613,162.426C178.588,163.95 178.573,163.937 179.725,165.32C181.092,166.961 180.828,167.141 182.238,168.731C183.901,170.606 183.543,170.863 185.244,172.731C186.702,174.332 186.796,175.075 188.741,177.293C190.404,179.187 190.144,179.366 191.718,181.334C193.042,182.99 192.831,183.135 194.234,184.733C195.887,186.617 195.577,186.834 197.231,188.734C198.874,190.62 198.588,190.821 200.227,192.735C201.862,194.644 201.568,194.857 203.236,196.735C204.702,198.386 204.363,198.633 206.746,201.281C208.422,203.142 208.041,203.431 209.751,205.268C211.69,207.352 211.336,207.612 213.24,209.733C214.915,211.599 214.57,211.842 216.244,213.726C217.907,215.597 217.582,215.827 219.244,217.722C221.147,219.891 220.774,220.163 222.745,222.273C223.573,223.16 227.379,228.758 227.794,229.248C228.357,229.913 228.464,229.807 229.688,231.36C230.541,232.442 230.601,232.96 231.765,234.263C232.994,235.639 232.948,235.659 233.96,237.191C234.926,238.652 235.986,239.075 237.456,241.529C238.531,243.324 239.533,243.775 240.63,245.409C242.027,247.491 242.067,247.435 243.729,249.304C243.975,249.58 246.468,252.383 245.566,253.557C245.201,254.031 245.051,253.969 218.5,253.969C171.878,253.969 171.872,253.982 171.429,253.893C169.187,253.448 169.713,252.64 166.771,249.263C165.337,247.618 165.65,247.397 164.228,245.732C162.597,243.82 162.923,243.587 161.243,241.731C159.555,239.865 159.848,239.667 158.259,237.688C158.008,237.375 158.154,237.271 155.301,233.649C154.191,232.24 154.419,232.091 153.233,230.732C151.37,228.597 151.65,228.393 149.769,226.261C148.112,224.383 148.422,224.164 146.769,222.265C145.117,220.367 145.473,220.11 143.748,218.269C141.763,216.15 142.073,215.93 140.3,213.646C139.393,212.477 139.445,212.112 138.234,210.733C136.571,208.839 136.876,208.624 135.236,206.727C133.589,204.823 133.933,204.578 132.247,202.73C130.552,200.873 130.921,200.597 129.241,198.731C127.555,196.858 127.907,196.605 126.235,194.738C124.091,192.344 124.367,192.15 122.278,189.679C120.906,188.056 121.183,187.868 119.761,186.269C118.908,185.31 118.539,184.682 118.451,184.531C117.173,182.357 116.731,182.69 115.458,180.527C114.172,178.342 113.729,178.672 112.463,176.524C111.193,174.368 110.93,174.566 109.607,172.433C107.32,168.743 106.895,168.597 106.514,168.467C105.678,168.18 105.649,168.32 83.501,168.242C74.989,168.212 74.961,168.405 74.633,168.664C73.709,169.396 74.173,169.652 73.933,178.504C73.619,190.049 74.158,210.344 73.593,235.502C73.568,236.621 73.731,236.613 73.491,249.5C73.431,252.746 73.778,253.867 70.521,253.964C68.669,254.02 14.96,253.878 8.504,254.03C4.992,254.113 5.051,253.008 5.031,249.501C4.992,242.347 5.113,16.32 4.968,11.501C4.844,7.367 6.358,7.722 10.502,7.67C11.367,7.659 48.292,7.513 60.498,7.681C79.506,7.943 99.987,7.393 130.497,7.732C138.763,7.824 146.434,7.171 150.455,7.751C154.52,8.336 156.274,7.472 159.521,8.437C162.912,9.445 163.069,8.577 166.483,9.554C167.409,9.818 177.19,10.874 191.43,16.659C192.707,17.178 194.894,17.614 206.189,24.998C208.632,26.595 208.234,27.08 211.55,29.432C212.015,29.761 214.105,31.243 216.716,34.325C217.872,35.688 217.642,36.003 219.75,38.269C221.137,39.759 221.031,39.838 224.13,44.73C228.407,51.481 231.764,63.109 231.925,64.448C232.169,66.475 232.287,66.43 232.753,68.434C233.114,69.987 232.844,75.358 233.297,77.538C233.516,78.593 233.893,78.543 234.029,84.497C234.098,87.528 233.14,88.899 233.03,95.496C232.98,98.527 232.442,98.442 232.029,101.453C231.971,101.87 231.885,101.846 230.839,106.577C229.788,111.333 226.221,118.606 225.728,119.611C225.336,120.412 224.339,122.445 220.056,129.204C219.843,129.54 219.668,129.408 217.083,133.193C216.475,134.084 213.286,137.336 210.107,140.003L159.983,105.827C162.183,102.899 162.299,102.961 163.592,99.536C164.695,96.613 165.342,92.677 165.401,92.469C166.045,90.223 166.027,90.205 165.963,85.491C165.936,83.469 165.718,83.514 165.196,81.575C164.998,80.84 164.944,79.695 164.533,78.488C162.739,73.223 159.836,70.319 159.259,69.741C154.335,64.816 145.568,62.3 143.443,61.963C140.257,61.459 140.34,60.889 137.499,60.969C132.154,61.122 78.308,60.983 76.47,61.036C74.031,61.105 73.97,62.22 73.969,64.502C73.96,83.37 73.789,95.277 73.79,95.499C73.874,115.002 73.074,115.389 74.441,116.581C75.048,117.111 75.136,117.15 84.496,117.102C111.523,116.964 111.507,117.483 138.512,116.961C140.797,116.917 147.212,114.836 148.397,114.282C154.998,111.195 155.25,110.314 155.804,109.933C157.861,108.518 158.145,108.766 159.983,105.827L210.107,140.003Z"/>
        <path d="M375.798,236.999C359.9,247.685 342.015,251.392 341.517,251.547C339.395,252.206 339.297,251.714 336.518,252.553C334.312,253.219 332.202,252.826 330.439,253.251C328.131,253.808 328.146,253.963 324.5,253.969C316.501,253.981 316.52,254.17 308.512,254.045C300.818,253.926 300.777,254.219 298.477,253.575C295.051,252.616 294.885,253.572 291.486,252.542C288.541,251.65 288.398,252.443 285.475,251.575C285.139,251.475 273.623,249.196 262.399,243.701C256.331,240.73 255.536,240.33 253.31,238.778C251.814,237.734 251.708,237.92 250.269,236.795C249.472,236.173 248.547,235.859 246.713,234.252C244.522,232.332 244.21,232.721 241.74,230.259C232.562,221.111 232.542,221.138 231.902,220.212C231.854,220.142 231.421,218.96 229.257,216.735C226.298,213.693 220.863,204.328 219.369,200.556C216.622,193.62 216.218,191.394 216.068,190.566C215.607,188.024 215.177,188.111 215.044,185.523C214.94,183.487 214.874,183.504 214.338,181.55C213.84,179.74 213.901,167.822 214.238,166.436C214.709,164.5 214.774,164.523 214.982,162.529C215.09,161.492 217.617,150.792 221.302,143.401C222.372,141.253 226.143,134.416 228.743,131.734C231.219,129.181 230.747,128.795 233.259,126.262C238.594,120.881 238.561,120.838 241.21,119.096C242.595,118.186 242.344,117.86 244.551,116.581C246.698,115.338 246.402,114.87 252.602,111.697C253.902,111.031 255.247,110.582 255.261,109.489C255.276,108.307 253.808,107.494 252.918,106.206C252.738,105.946 252.672,105.308 250.255,102.727C248.179,100.51 242.436,91.06 241.054,83.569C241.01,83.332 239.108,75.46 239.057,74.533C238.918,71.996 238.861,72.019 238.298,69.549C238.04,68.414 237.705,60.699 238.321,58.444C238.847,56.515 238.847,56.524 238.972,54.511C239.129,51.975 239.489,52.054 239.982,49.575C240.079,49.087 242.658,39.072 248.198,32.254C248.887,31.405 248.873,31.409 249.448,30.466C249.891,29.741 250.62,28.544 256.742,22.755C258.079,21.49 259.172,21.129 261.29,19.257C263.881,16.965 272.711,12.077 278.401,10.197C288.079,7 288.127,7.164 289.561,6.917C291.58,6.57 291.486,6.186 293.469,6.051C295.502,5.913 295.481,5.843 297.444,5.317C299.01,4.897 301.758,5.135 303.563,4.802C310.96,3.438 311.003,4.17 318.498,3.97C321.598,3.887 324.719,4.89 325.461,4.934C327.991,5.085 328.01,4.933 330.46,5.627C332.103,6.092 333.277,5.86 334.573,6.204C340.967,7.904 344.178,8.471 351.434,11.64C353.68,12.621 362.28,16.993 364.725,19.253C367.357,21.685 367.724,21.22 370.26,23.741C376.466,29.911 377.008,30.809 377.446,31.536C378.408,33.132 384.642,39.337 388.729,55.434C389.028,56.608 388.921,58.922 389.26,60.55C389.316,60.815 389.899,61.971 390.031,66.499C390.135,70.05 389.177,69.934 389.062,73.473C388.947,77.011 388.713,76.971 388.012,80.423C387.206,84.395 382.283,96.253 378.283,101.338C377.224,102.685 377.562,102.948 374.26,106.26C367.174,113.366 366.9,113.545 366.147,114.037C365.919,114.186 365.653,114.271 365.422,114.414C364.871,114.754 364.297,115.676 365.213,116.681C367.875,119.598 368.178,119.325 370.402,122.569C371.809,124.62 374.175,126.462 375.073,127.804C376.88,130.506 377.064,130.342 379.231,132.745C380.642,134.309 381.952,137.307 383.495,137.305C384.945,137.303 385.427,134.761 386.317,132.427C386.769,131.241 388.432,126.047 389.378,123.454C391.504,117.631 390.788,115.583 393.472,116.576C395.047,117.159 405.277,122.847 408.568,124.358C417.481,128.451 421.736,131.272 427.574,134.36C430.113,135.703 432.312,137.129 437.76,140.001C440.356,141.369 439.806,142.014 439.225,144.427C439.178,144.625 438.981,146.212 438.572,147.525C437.811,149.968 438.069,150.014 437.355,152.452C436.774,154.434 436.985,154.469 436.372,156.456C435.465,159.399 431.483,177.855 421.758,192.664C420.75,194.2 420.894,194.264 419.846,195.747C418.114,198.198 418.349,199.21 418.423,199.525C418.679,200.627 420.591,201.528 422.449,204.534C423.75,206.639 427.096,209.341 428.099,210.796C430.549,214.35 430.917,214.025 433.714,217.326C434.915,218.743 434.703,219.213 437.741,222.26C439.257,223.779 440.118,224.441 441.442,226.54C443.542,229.872 445.55,229.992 449.386,235.581C451.131,238.122 456.807,242.768 458.547,245.466C461.401,249.893 465.557,251.676 464.396,253.424C463.977,254.055 463.768,253.969 440.5,253.969C407.371,253.969 407.373,253.962 403.506,254.028C400.646,254.077 400.348,252.858 398.258,250.739C397.026,249.49 396.615,249.221 395.538,247.474C394.116,245.166 389.064,240.876 387.905,239.199C387.546,238.679 384.177,233.803 382.525,233.421C380.719,233.002 379.461,234.876 375.798,236.999L289.987,86.139C292.004,88.552 292.272,88.24 294.732,90.213C296.034,91.257 300.035,93.183 302.623,94.168C302.859,94.257 305.201,95.148 305.479,95.517C306.394,96.733 305.106,97.824 305.039,101.489C304.993,104.017 305.116,104.035 304.423,106.476C303.713,108.976 304.408,109.602 303.55,112.516C302.547,115.925 303.465,116.087 302.464,119.488C301.594,122.444 302.439,122.572 301.654,125.545C301.572,125.854 301.449,126.151 301.365,126.46C300.855,128.352 301.257,129.201 300.605,131.533C299.781,134.481 300.432,134.597 299.583,137.527C298.601,140.916 299.333,141.046 298.381,144.463C297.864,146.32 298.206,147.489 297.65,149.545C296.988,151.993 297.254,152.022 296.912,154.549C296.676,156.283 296.148,156.99 296.064,158.464C295.92,160.997 295.997,160.998 295.332,163.449C294.64,165.998 295.443,166.132 294.436,169.479C293.689,171.962 294.451,172.075 293.792,174.572C293.122,177.114 293.096,177.106 293.07,177.458C292.924,179.517 293.125,179.533 292.559,181.518C291.586,184.926 292.392,185.068 291.422,188.475C290.613,191.318 291.409,191.456 290.475,194.491C289.571,197.429 290.407,197.568 289.63,200.536C289.209,202.14 288.428,203.33 291.483,204.54C297.383,206.875 297.42,206.723 303.466,208.596C305.268,209.154 305.863,208.743 308.539,209.341C315.977,211.004 316.534,209.246 320.475,209.043C324.763,208.822 336.45,204.377 337.251,203.298C338.012,202.273 337.124,200.945 337.045,198.519C336.963,195.988 336.912,196.008 336.296,193.558C335.629,190.905 336.372,190.784 335.417,187.527C334.617,184.8 335.428,184.654 334.469,181.511C333.717,179.045 334.314,178.943 333.638,176.458C333.114,174.53 333.239,174.526 333.004,172.535C332.762,170.492 332.265,170.604 332.07,168.543C331.9,166.734 332.115,166.705 331.448,164.518C330.699,162.06 331.323,161.948 330.607,159.466C329.625,156.058 330.456,155.905 329.454,152.515C328.532,149.398 329.576,149.22 328.448,145.518C327.732,143.17 328.343,143.052 327.563,140.478C326.674,137.543 327.436,137.41 326.564,134.479C325.69,131.538 326.428,131.406 325.544,128.485C324.65,125.534 325.268,125.241 324.785,123.428C324.269,121.492 324.203,121.518 324.022,119.524C323.789,116.961 323.177,117.078 323.045,114.523C322.939,112.494 322.861,112.515 322.325,110.554C321.91,109.033 322.154,107.247 321.698,105.444C321.619,105.134 321.493,104.837 321.405,104.53C320.558,101.564 321.473,101.423 320.665,98.452C320.075,96.28 319.537,95.638 321.636,94.83C322.458,94.513 327.509,93.052 331.588,90.641C331.934,90.437 331.865,90.352 335.561,87.575C336.148,87.134 337.751,85.929 341.217,80.332C343.157,77.197 343.828,74.153 343.953,73.584C344.516,71.028 344.93,71.105 344.963,68.509C345.027,63.401 345.116,63.387 344.53,61.49C343.365,57.713 343.8,56.642 340.311,51.622C339.318,50.193 339.625,49.941 335.723,46.26C333.881,44.523 333.701,44.78 331.627,43.308C329.132,41.536 322.408,39.351 320.557,39.105C318.523,38.835 318.533,38.841 316.561,38.305C312.883,37.304 310.037,38.834 307.523,38.959C304.701,39.098 299.316,40.672 294.627,43.71C293.216,44.624 292.765,44.526 289.264,48.283C286.777,50.953 283.47,57.283 283.04,61.468C282.663,65.132 282.111,65.136 282.734,68.447C283.211,70.984 282.414,74.34 287.343,82.6C287.524,82.904 287.641,82.79 289.987,86.139L375.798,236.999Z"/>
        <path d="M224.001,319.213C224.776,317.848 227.854,312.867 228.193,312.318C229.974,309.436 231.309,307.009 231.566,306.54C232.28,305.241 237.501,296.453 240.324,291.399C241.752,288.841 242.511,288.871 250.517,289.054C253.072,289.113 253.198,289.98 253.903,291.294C258.588,300.029 272.323,321.231 273.719,324.413C274.344,325.837 273.693,326.456 273.568,326.576C273.099,327.022 273.025,327.092 265.488,326.962C261.849,326.9 261.431,324.671 260.265,322.636C258.171,318.984 257.714,318.944 253.5,319.032C238.332,319.347 237.689,318.185 235.675,320.63C232.687,324.258 233.79,327.18 228.499,327.031C221.391,326.831 220.95,327.133 220.499,326.5C219.806,325.527 221.219,323.618 224.001,319.213L242.014,308.249C241.916,308.421 240.968,310.088 240.997,310.51C241.092,311.936 243.25,311.946 243.479,311.947C243.801,311.948 243.79,311.926 247.5,311.924C251.739,311.922 252.419,312.278 252.658,311.683C253.395,309.857 252.51,309.912 250.701,306.398C250.459,305.928 247.82,300.805 247.424,300.662C246.205,300.224 245.615,301.993 243.118,306.274C242.545,307.257 242.539,307.237 242.014,308.249L224.001,319.213Z"/>
        <path d="M348.934,321.926C348.168,322.581 347.013,324.687 338.571,326.789C336.628,327.273 336.573,326.658 331.493,327.455C327.335,328.106 326.718,327.26 323.539,327.087C322.41,327.025 322.026,327.51 316.496,325.511C309.419,322.955 307.649,319.246 306.261,313.557C305.841,311.833 306.034,291.735 306.084,291.436C306.55,288.641 307.886,289.132 314.496,288.97C318.012,288.884 317.951,289.992 317.969,293.499C318.062,311.85 317.348,312.69 319.713,315.31C322.305,318.181 322.785,317.458 326.477,318.567C331.126,319.964 336.867,317.524 337.335,317.234C341.846,314.43 340.968,308.915 340.968,308.5C340.983,290.783 340.805,290.386 341.596,289.597C342.146,289.048 342.246,289.129 349.495,288.97C353.61,288.881 352.969,291.296 352.969,295.5C352.969,303.513 353.144,303.498 353.028,311.495C352.991,314.02 352.666,313.955 352.024,316.397C351.332,319.031 349.258,321.536 348.934,321.926Z"/>
        <path d="M190,298.225C187.921,301.763 187.008,304.46 183.777,309.665C182.275,312.084 175.672,325.342 174.368,326.335C173.008,327.371 164.603,327.125 163.435,326.626C162.244,326.117 162.824,325.576 155.037,312.783C153.981,311.047 152.993,309.572 152.808,309.298C152.793,309.274 146.47,298.585 145.733,297.366C145.548,297.061 145.606,297.056 143.549,293.47C143.344,293.113 141.391,290.806 142.587,289.586C143.499,288.656 152.558,289.103 152.573,289.106C155.298,289.65 154.189,290.958 160.256,300.647C161.094,301.986 161.529,303.432 164.217,307.672C165.252,309.304 167.3,313.921 167.732,314.173C167.871,314.254 168.952,314.885 169.678,313.662C170.667,311.994 170.445,311.877 181.053,292.262C182.688,289.239 183.051,289.229 186.487,289.132C193.271,288.938 193.231,289.45 193.387,289.61C194.602,290.856 192.852,292.781 190,298.225Z"/>
        <path d="M482.496,288.996C495.392,289.32 496.14,288.54 496.772,290.385C496.785,290.423 497.581,296.048 496.315,297.315C494.763,298.868 482.985,297.114 481.55,298.55C480.918,299.184 481.039,299.344 481.032,322.5C481.032,322.82 481.031,325.885 480.458,326.458C479.841,327.075 479.132,326.859 473.502,327.032C470.592,327.121 470.084,326.388 470.033,324.529C469.978,322.569 470.185,300.814 469.817,299.404C469.429,297.918 469.066,298.087 467.54,298.036C464.336,297.928 457.381,297.879 456.498,297.872C452.576,297.845 453.043,296.414 452.972,292.507C452.909,289.069 454.06,289.221 457.504,289.257C467.808,289.363 470.582,288.916 482.496,288.996Z"/>
        <path d="M401.007,291.534C401.006,291.613 400.812,316.561 401.121,317.623C401.59,319.239 402.226,318.968 413.5,318.968C426.767,318.968 427.439,318.703 427.88,320.377C427.899,320.448 428.178,324.598 427.88,325.623C427.411,327.24 426.773,326.969 415.5,326.969C391.259,326.969 391.231,327.021 390.402,326.694C388.636,325.996 389.541,325.28 389.331,312.503C389.183,303.497 389.367,303.514 389.122,294.514C389.077,292.89 388.438,289.446 391.437,289.098C391.602,289.079 398.379,288.781 399.609,289.24C400.88,289.715 400.477,290.11 401.007,291.534Z"/>
        <path d="M601.493,311.003C596.498,310.945 596.519,311.06 591.506,311.017C581.358,310.931 581.368,310.645 561.504,310.827C554.662,310.89 533.901,310.923 531.501,310.926C530.468,310.928 526.405,311.51 526.091,308.544C525.779,305.59 529.056,306.033 529.494,306.031C539.011,305.989 627.655,306.11 632.498,305.966C633.348,305.941 635.448,305.819 635.894,307.384C635.93,307.509 636.65,310.678 633.51,310.729C631.032,310.77 631.039,310.345 621.504,310.643C609.93,311.006 609.938,310.679 601.493,311.003Z"/>
        <path d="M6.533,305.988C10.974,306.076 109.628,306.005 110.531,306.031C114.425,306.141 113.089,310.174 111.509,310.534C110.971,310.656 110.968,310.589 108.5,310.593C94.989,310.616 95.015,310.9 81.499,310.884C52.058,310.849 52.064,310.712 49.504,310.737C35.993,310.871 36.014,310.634 22.501,310.703C15.002,310.742 15.006,310.133 7.514,310.685C2.574,311.05 3.967,306.755 5.387,306.233C5.754,306.098 6.167,306.122 6.533,305.988Z"/>
      </g>
    </g>
  </g>
</svg>
